<?xml version="1.0" encoding="UTF-8"?>
<!DOCTYPE svg PUBLIC "-//W3C//DTD SVG 1.1//EN" "http://www.w3.org/Graphics/SVG/1.1/DTD/svg11.dtd">
<svg version="1.1" viewBox="0 0 1280 1280" xmlns="http://www.w3.org/2000/svg">
<path d="m447.69 628.37c-3.14-0.34-5.68-1.13-8.96-1.12q-5.3 0-12.24-0.98c-12.45-1.75-24.18-3.69-35.22-9.22-11.79-5.9-23.04-11.79-33.92-19.88-9.74-7.26-19.33-12.75-28.34-18.51-5.68-3.63-27.17-21.31-26.53-28.54 0.9-10.12 10.75-8.94 17.99-7.23q14.84 3.5 29.61 7.31c18.99 4.91 34.29 7.11 53.17 3.86 19.04-3.27 31.61-4.55 42.7-6.51 5.4-0.96 11.62-4.15 16.05-5.33q14.78-3.96 27.91-11.52c11.14-6.4 23.46-17.07 33.34-25.7 3.35-2.92 6.62-6.32 9.32-10.56q3.78-5.96 10.49-14.62c10.25-13.24 16.32-33 19.91-49.58q0.69-3.16 0.52-6.42a1.6 1.57-65.4 0 0-0.33-0.91c-4.85-6.52-7.77-12.94-11.54-20.01-9.09-17.05-36.77-13.59-51.99-10.58-13.06 2.58-21.67 3.86-31.31 7.28-8.53 3.02-17.39 2.79-26.25 5.89q-14.99 5.24-20.08 6.71-30.45 8.8-59.36 21.79c-8.49 3.81-19.56 5.23-26.58 8.55q-19.89 9.42-38.3 11.45-5.29 0.58-24 1.65-0.54 0.03-0.9 0.43l-1.78 1.97q-0.36 0.4-0.9 0.39-7.89-0.11-13.81-5.31c-4.61-4.05-2.82-9.85-2.7-15.13q0.1-3.88 0.52-7.98c0.98-9.54 1.13-19.42 2.22-28.57 2.58-21.66 1.77-43.53 5.06-65.08q4.88-31.92 9.55-63.86 1.01-6.9 4.74-22.81c2.19-9.31 6.94-17.88 11.21-26.31a1.44 1.44 0 0 0-0.99-2.06c-3-0.64-4.57-3.84-7.54-3.81-8.72 0.12-16.23 0.33-23.97-1.79q-17.85-4.88-38.46-9.45-6.1-1.35-12.12-3.76c-7.9-3.15-15.68-9.39-23.2-14.2-2.87-1.83-8.19-3.25-8.73-7.11-0.57-4.13 8.73-10.51 12.09-11.84 13.07-5.19 27.04-12.6 38.09-17.43 19.35-8.46 38.88-17.36 58.94-23.98 16.31-5.38 29.26-12.79 43.23-20.68 13.29-7.51 20.47-12.82 30.13-20.6 7.06-5.68 13.17-17.11 15.08-25.91 1.9-8.77 3.45-22.13 13.5-24.45q18.07-4.17 30.3-4.47c18.99-0.46 37.29-1.47 56.94-1.32 7.83 0.06 15.6 0.38 22.59 3.75 4.68 2.25 18.35 8.94 15.12 16.26-2.36 5.33-6.05 5.9-9.68 9.53q-24.65 24.72-49.5 49.21-1.34 1.33-2.9 2.08a0.4 0.39 30.2 0 0 0.2 0.75q7.05-0.47 14.08-1.4c4.91-0.64 12.72-2.64 19.33-2.96 9.51-0.47 21.21-5.2 24.65 8.79q0.12 0.48 0.48 0.82c2.28 2.1 2.97 12.18 3.61 17.85 0.36 3.27-0.77 6.84-0.7 10.8 0.3 17.32-1.68 39.54-0.51 59.09 0.71 11.84 2.5 23.78 3.08 35.35 0.61 12.21 2.05 23.36-0.15 35.67a0.82 0.82 0 0 0 1.25 0.84c11.57-7.33 23.43-15.52 36.14-20.88 9.28-3.92 19.35-8.44 28.16-11.17 15.04-4.65 33.2-8.65 48.7-4.05 9.2 2.73 19.93 4.94 27.15 11.71 10.58 9.92 14.17 19.03 14.63 33.82 0.08 2.5-1.38 5.56-0.53 8.43 2.13 7.17-7.86 14.71-14.03 15.48-6.7 0.83-11.25 3.88-17.19 4.01-4.13 0.1-9.07 0.67-13.07 1.36q-12.97 2.26-25.56 6.09c-5.7 1.74-12.62 3.69-18.57 4.23-18.65 1.72-36.82 6.33-55.25 9.38-8.65 1.44-18.12 3.92-25.65 5.56-8.05 1.76-13.42 3.07-24 5.81-11.49 2.98-22.53 5.1-34.84 8.72-5.54 1.63-10.53 2.88-16.66 2.98-3.46 0.06-7.25 0.83-10.59 1.75-10 2.73-19.68 6.99-29.16 9.58-12.9 3.52-25.97 8.06-39.17 10.21a1.72 1.72 0 0 0-1.44 1.8l0.55 8.97a1.53 1.53 0 0 0 1.97 1.38q4.11-1.24 7.32-2.85 23.16-11.64 48.68-16.29c2.44-0.44 4.93-0.45 7.21-1.31 5.68-2.16 11.74-3.65 17.17-5.86 15.92-6.47 33.88-11.39 51.08-17.79 1.02-0.38 2.64-0.14 3.66-0.43q8.89-2.53 18.01-3.82 5.2-0.74 10.16-2.06c7.1-1.89 14.43-2.91 21.4-4.52 11.01-2.55 22.21-5.23 33.52-6.48q14.94-1.65 29.69-4.5c18.22-3.54 36.28-5.14 54.6-1.85q8.71 1.56 17.3 3.79c6.93 1.8 11.03 8.32 13.49 14.86 2.82 7.49 2.92 19.18 1.16 27.07-1.54 6.95-2.09 14.5-4.69 22.09-3.02 8.84-6.19 18.03-7.93 27.22-0.79 4.17-3.15 7.83-3.96 11.59-2.57 11.8-4.25 25.09-8.72 36.27-5.73 14.32-9.71 31.03-13.71 40.49-7.65 18.08-18.29 37.72-32.27 51.67-8.81 8.8-17.58 18.38-27.1 25.57-10.22 7.72-21.48 15.74-33.37 21.01-7.28 3.23-13.04 8.01-20.12 10.44a0.47 0.46-49.6 0 0 0.07 0.9c10.75 1.75 25.55 5.34 33.25 10.66 4.05 2.8 8.44 5.36 12.03 8.75q10.69 10.09 14.31 15.48c1.93 2.86 4.24 5.66 5.35 8.45q2.64 6.61 5.98 12.93c1.93 3.66 2.95 7.67 4.47 11.87q2.69 7.44 3.4 17.1 0.08 1.05 0.65 3.79c0.7 3.32 0.45 6.85 1.11 10.4 1.9 10.18 0.79 22.68 0.77 33.13-0.01 4.89-1.03 9.99-1.5 15.36-0.76 8.8-2.32 21.77-4.77 32.69-1.51 6.77-2.11 13.66-3.83 20.38a0.37 0.36-22.7 0 0 0.67 0.27c7.4-12.47 17.96-23.35 28.76-32.91q10.65-9.43 29.94-25.15 6.87-5.6 13.91-7.59c4.09-1.16 7.08-4.54 11.12-6.28q4.02-1.74 4.83-2.11c3.66-1.71 7.7-2.49 11.36-4.09q4.93-2.17 10.19-3.21 5.16-1.02 11.56-1.95c11.6-1.68 23.06-0.91 33.42 4.47 4.52 2.35 7.98 6.45 11.57 10.22 1.39 1.45 2.29 3.62 4.09 5.12q0.39 0.32 0.5 0.81c0.7 2.91 2.16 5.69 2.35 8.52q1.18 17.48-8.98 30.81-2.12 2.78-8.75 8.66-6.37 5.65-11.96 12.09-2.54 2.93-5.44 4.99-9.17 6.54-18.08 13.51-0.34 0.26 0.08 0.33 10.55 1.82 20.19 6.22c8.73 3.99 14.89 6.79 20.32 13.4q2.19 2.66 6.36 11.89 0.2 0.44 0.1 0.91-0.21 1.02 0.22 1.9a0.46 0.46 0 0 0 0.87-0.12c1.55-7.97 3.47-15.74 4.69-23.79q1.77-11.73 2.97-15.62a93.18 41.38-74.7 0 0 3.48-12.71q3.45-14.29 6.08-28.83c0.3-1.67-0.12-3.49 0.35-5.03 0.96-3.13 0.82-6.83 1.15-9.4 0.97-7.48 0.03-14.85 1.24-22.19 1.97-11.87 0.04-23.64-0.46-35.53q-0.59-13.84-2.58-26.19-0.42-2.56-1.55-5.96c-0.35-1.05-0.4-2.63-1.64-3.37q-0.44-0.26-0.93-0.1-10.14 3.39-17.24 7.35-12.27 6.86-24.9 10.21c-13.02 3.45-22.91 7.16-34.5 13.62q-19.98 11.14-38.09 18.42c-7.34 2.95-15.15 4.82-23.59 4.84-9.45 0.02-21.88 2.46-23.42-10.81-0.52-4.49-1.53-8.76-0.84-13.83 1.91-14.1 3.86-22.97 13.52-33.75q1.37-1.53 4.28-3.68c2.04-1.51 3.95-3.52 5.81-4.91q9.84-7.38 20.22-13.97 4.16-2.63 10.86-7.57 8.23-6.05 19.3-12.15c10.59-5.83 22.79-15.56 31.57-21.08 13.55-8.52 28.93-17.23 43.85-23.06 7.04-2.75 15.84-5.4 23.09-5.9 1.07-0.07 1.92-0.69 2.92-0.76q20.97-1.45 46.25-0.92 9.24 0.19 15.32 1.05c10.74 1.53 21.57 7.55 28.63 13.87 7.48 6.7 15.76 13.16 19.77 20.31 1.42 2.53 2.91 4.11 3.35 7.12 0.54 3.6 1.66 7.5 1.91 10.77q0.52 6.94-0.76 13.81c-0.88 4.75-1.76 9.5-3.33 14.18q-3.26 9.76-6.19 19.62c-2.31 7.75-0.35 15.29-1.79 23.12-1.13 6.19-1.72 12.18-3.99 21.66-2.59 10.82-7.39 21.71-8.71 32.38q-0.23 1.84-0.52 3.04c-0.63 2.59-0.3 4.83-0.83 7.34-0.94 4.55-1.27 9.19-2.14 13.75q-1.25 6.52-1.94 10.94-1 6.29-2.33 10.87-2.64 9.06-3.33 16.62-0.11 1.21-0.73 3.8c-0.41 1.71-0.27 3.54-0.71 5.16q-3.21 11.86-7.13 23.5c-0.94 2.8-1.37 6.25-2.44 9.16q-4.89 13.29-6.84 26.31-0.24 1.58-0.88 2.6-0.28 0.43-0.18 0.93 0.39 2.11-0.86 3.8a0.65 0.65 0 0 0 0.24 0.98c3.63 1.75 9.41 1.79 12.88 1.94q2.94 0.13 7.99-1.01 11.03-2.49 22.49-1.65a1.64 1.6-22.5 0 1 0.9 0.36c2.67 2.18 9.21 0 12.49-1.03 6.34-1.99 12.9-2.91 19.17-5.85q5.22-2.46 11.73-8.23c6.07-5.38 10.73-9.71 13.99-15.75q1.47-2.72 3.36-5.48 6.55-9.53 10.65-20.34c0.89-2.35 1.14-5.57 2.11-8.37 0.95-2.72 3.42-3.69 4.02-7.02q0.47-2.6 0.5-2.74c3.5-15.11-11.19-25.78-12.54-40.42q-1.2-12.94 3.19-25.2c1.61-4.5 8.19-9.39 13.64-11.98q3.76-1.77 8.83-2.86c4.8-1.03 9.49-2.4 14.43-2.11 11.72 0.69 24.3 1.01 34.57 5.32q9.55 4 19.52 6.86c6.27 1.8 17.2 12.43 19.69 18.62 3.89 9.71 1.19 16.09-1.52 25.8-1.78 6.38-5.52 12.58-8.46 18.52-3.43 6.93-5.86 14.85-9.07 22.2a0.54 0.54 0 0 0 0.67 0.72q4.97-1.75 9.74-3.19c6.86-2.08 12.84-4.78 19.31-7.32 23.96-9.41 43.34-21.9 63.09-37.49q6.29-4.96 14.61-9.51 9.1-4.98 13.51 2.6 1.79 3.09 2.88 4.31 8.91 10.01 13.82 15.96c10.04 12.17 12.34 29.69 9.32 44.85-1.65 8.28-4.99 13.41-11.4 19.81-17.74 17.68-35.96 37.28-50 58.08-10.49 15.54-22.22 29.95-30.55 46.95q-0.09 0.18-1.44 2.13c-0.72 1.06-0.72 2.28-1.26 3.35q-2.38 4.7-3.79 9.8-4.81 17.38-5.41 24.07c-0.27 3.02-0.95 5.89-1.07 8.36-0.35 7.56-1.72 15.8-1.98 22.55-0.35 9.21-1.19 20.63 0.58 29.63 0.41 2.09 0.37 4.21 0.88 6.23q4.77 18.69 10.85 37.01c4.15 12.51 10.57 26.41 20.4 34.85q6.77 5.8 16.03 10.18c10.36 4.89 27.56 6.64 33.85-4.83q2.2-3.99 3.12-13.2c1.22-12.26-0.18-24.11-0.46-36.15-0.23-9.9-0.83-19.81-4.17-29.34-4.81-13.76-9.26-27.96-15.58-40.86q-6.64-13.57-13.96-26.8-0.24-0.43-0.17-0.92c0.77-5.47 5.09-4.72 9.16-3.33q9.72 3.31 15.71 6.92c4.06 2.44 8.52 4.14 11.82 6.36q7.79 5.24 15.15 11.06 4.93 3.91 9.29 9.01c8.45 9.91 18.36 22.33 24.44 30.91 6.15 8.65 10.05 17.48 14.36 26.67q2.15 4.58 3.02 7.17 3.7 10.96 4.19 15.53 1.07 9.79 3.29 26.99 2.03 15.71 1.38 32.27-0.31 8.11-2.25 13.7c-5.08 14.69-19.54 30.48-34.27 36.34-3.72 1.48-6.75 4.21-10.98 5.25-4.89 1.2-8.83 1.85-12.94 3.2-10.25 3.39-20.38 4.28-31.07 2.7-2.62-0.39-5.31-0.32-7.78-0.94q-12.46-3.08-24.92-6.16c-18.59-4.59-38.15-12.02-55.16-20.15-16.58-7.93-33.61-21.29-43.13-37.23q-5.25-8.79-8.67-18.44c-4.15-11.72-4.78-25.2-4.88-37.85-0.23-29.21-0.91-49.68 3.39-74.94q3.35-19.68 3.54-26.75 0.61-23.27 2.22-46.48 0.07-0.92 0.76-4.08c0.42-1.88 0.13-3.85 0.45-5.57 1.12-5.85 2.08-10.75 4.81-16.38 1.57-3.24 6.92-13.51 6.51-16.73q-0.12-0.87-0.98-0.67c-12.03 2.77-28.69 10.8-34.22 22.3-6.63 13.81-15.9 25.04-20.84 39.89q-3.29 9.89-4.31 13.65c-2.4 8.91-4.33 28.89 5.44 35q15.05 9.41 18.16 26.23c1.29 6.95 0.02 15.1-1 22.46-2.73 19.8-4.55 40.7-26.18 48.62-5.63 2.06-13.32 3.03-19.82 3.85-12.63 1.6-18.57-6.22-24.74-15.61q-4.14-6.3-9.43-11.89a1.66 1.66 0 0 0-2.7 0.43q-10.86 22.82-27.17 42.43-17.64 21.21-35.61 42.14c-18.17 21.16-39.84 34.97-66.32 45.18-14.74 5.68-34.11 4.23-48.92-0.1-7.29-2.14-13.58-7.68-18.77-12.99-3.38-3.46-5.32-6.79-7.03-11.64-4.61-13.04-7.1-26.19-9.82-39.7-1.45-7.21-2.4-14.37-1.37-20.67 1.04-6.31 9.78-6.77 14.51-6.42 4.8 0.35 11.55 3.77 15.27 7.05q4.91 4.34 6.83 5.23c9.85 4.57 22.98 6.15 33.27 7.4 8.09 0.99 19.8-3.15 26.31-6.59 4.69-2.47 10.01-6.82 15.67-11.02 5.81-4.32 10.28-9.79 14.74-14.69 9.05-9.95 19.27-23.25 26.28-33.84q2.37-3.58 6.89-13.96c5.65-12.98 10.64-33.23-4.13-42.37-13.92-8.61-29.32-16.83-45.23-23.2-9.46-3.78-8.26-11.39 1.01-14.14 7.68-2.27 13.75-2.41 20.81-3.11 13.41-1.34 27.67-0.5 41.18-0.52q1.79 0 6.87 0.55c4.25 0.47 8.56-0.33 12.14-0.51 3.96-0.2 6.88-0.17 10.95-2.16a1.42 1.4-0.8 0 0 0.66-0.67c1.17-2.43 2.16-4.3 3.83-6.72q6.35-9.19 5.03-20.59-0.06-0.48-0.49-0.27-19.27 9.06-40.02 13.92-6.04 1.41-28.26 3.87-15.56 1.73-29.11-8.41a0.56 0.55 29.8 0 0-0.84 0.22c-8.19 19.16-18.51 37.03-29.67 54.86-5.46 8.71-8.38 18.16-13.46 25.38q-6.37 9.05-13.93 17.08c-5.88 6.24-10.19 11.57-15.08 17.62-8.26 10.2-19.82 15.68-32.58 20.18-10.8 3.8-20.93 6.8-31.3 2.41q-27.05-11.47-53.34-30.43-13.8-9.96-22.44-21.07-10.14-13.05-21.85-33.26c-9.05-15.61-15.16-33.25-20.63-50.37-2.02-6.3-2.88-12.55-3.97-19.18-1.2-7.2-0.86-14.56-0.82-21.82 0.02-4.39 1.4-15.85 4.84-18.8q4.29-3.68 9.47 0.41 4.37 3.45 7.5 5.71c8.65 6.25 16.15 14.85 23.69 22.41q0.83 0.84 2.49 3.26c0.99 1.44 3.17 2.82 3.63 4.41q0.13 0.46 0.47 0.81 7.01 7.06 13.94 14.22c2.36 2.42 4.91 6.49 7.96 8.76 5.69 4.22 11.77 9.32 17.6 11.6 7.48 2.93 13.52 6.32 21.66 5.02q9.5-1.51 13.26-1.77c3.97-0.28 10-3.36 13.93-6.04 8.27-5.64 15.81-11.29 20.44-17.27q3.62-4.68 4.8-6.14 9.94-12.38 17.66-30.18 5.2-12 7.04-22.22c2.37-13.15 5.34-26.25 8.49-39.34a0.35 0.35 0 0 0-0.53-0.38c-1.02 0.66-0.74 1.94-1.11 2.87-4.38 10.94-10.34 18.33-19.94 26.25-11.36 9.38-21.98 16.82-35.78 22q-10.37 3.89-18.48 6.57c-9.88 3.27-19.96 7.74-28.75 10.53-10.36 3.29-22.13 7.75-32.75 7.71-6.35-0.03-7.2-6.12-4.59-10.61 7.25-12.49 20.78-24.01 31.88-33.11 10.86-8.9 16.06-15.21 23.33-24.19q0.39-0.48-0.16-0.76c-3.23-1.65-17.22 3.54-21.02 4.9-4.66 1.67-15.16 2.74-19.46 0.02-6.81-4.32-6.56-11.11-3.42-17.61 10.09-20.9 20.06-38.7 34.49-56.28 2.33-2.83 5.57-6.29 7.97-9.96q1.89-2.91-1.53-2.31c-0.69 0.12-1.91-0.26-3 0.05-14.25 4.07-25.38 11.44-37.22 20.01-8.06 5.82-18.02 14.83-26.19 20.17-5.13 3.35-13.45 8.64-17.66 4.86a0.48 0.48 0 0 0-0.78 0.25c-1.15 4.82-2.16 9.19-3.85 14.29-2.49 7.47-3.86 15.32-6.63 22.68q-7.55 20.04-15.13 36.64c-1.07 2.34-1.66 4.8-2.59 6.86q-2.78 6.1-5.35 16.15-0.52 2.04-2.99 8.32-1.07 2.74-3.87 7.88-2.45 4.49-5.2 11.03-2.9 6.88-9.73 18.68-2.75 4.76-5.57 10.77c-5.23 11.17-12.22 19.89-21.75 29.41-1.73 1.73-4.61 3.94-6.92 4.71q-12.13 4.05-25.82 6.69c-7.57 1.46-14.61 1.9-22.25 0.01q-13.53-3.36-25.81-10.26c-28.51-16-47.8-36.38-65.5-63.65-4.42-6.81-6.26-16.63 6.32-13.94 11.61 2.49 24.83 7.72 34.72 10.16q9.55 2.35 19.25 3.98c6.5 1.09 18.24 2.17 24.46-0.23q18.88-7.26 27.65-26.05 7.32-15.68 15.32-31.02c4.69-9 8.45-18.14 11.83-26.81 1.17-3.01 2.79-5.86 3.77-8.49q5.08-13.69 9.54-27.59c1.55-4.85 2.44-9.62 2.78-15.02 0.17-2.82 1-5.48 0.9-8.23q-0.24-7.21 0.62-14.36c0.38-3.18 0.14-7.08 0.65-9.56q2.47-11.89 5.35-23.7c1.32-5.42 1.72-11.82 3.19-17.68 1.41-5.65 0.97-10.95 0.96-16.59 0-2.51 1.25-5.37 0.58-8.37-1.46-6.56-1.57-13.19-4.08-18.39q-2.45-5.06-8.08-10.16c-4.6-4.16-8.83-3.82-14.02-0.98q-13.38 7.34-23.5 18.78c-11.09 12.54-23.28 23.15-35.54 34.45-9.24 8.52-20.76 17.06-32.37 20.98-13.94 4.7-33.87 6.82-46.59-0.67-12.6-7.42-14.7-20.54-20.47-33.52-2.87-6.46-6.75-15.84-5.28-22.96q0.86-4.22 5.67-11.37 11.94-17.73 27.29-32.48 5.73-5.51 11.75-11.72 11.81-12.19 27.09-23.67c11.78-8.84 24.93-15.39 38.55-20.87q0.89-0.36-0.06-0.46zm-82.56-436.51-0.7 12.67a1.65 1.64-5.9 0 0 2.07 1.68q9.72-2.63 19.31-5.52c9.35-2.81 23.25-8.19 35.26-11.34q0.39-0.1 0.44-0.51l1.34-10.33a1.75 1.75 0 0 0-2.03-1.95q-6.06 1.02-13.09 2.09-15.79 2.41-30.62 8.27-5.11 2.01-10.54 3.24a1.86 1.85-4.8 0 0-1.44 1.7zm52.01 63.41 1.74-14.59a0.25 0.25 0 0 0-0.3-0.27c-11.02 2.12-22.84 3.95-32.86 7.43-7.29 2.53-14.64 6.06-21.42 8.49q-5.16 1.86-10.32 3.75a0.95 0.93-1.5 0 0-0.57 0.59l-2.36 7.14a0.89 0.89 0 0 0 1.1 1.14q17.93-5.22 36.34-9.25c5.9-1.29 16.47-1.4 27.15-2.9a1.76 1.75-0.7 0 0 1.5-1.53zm-75.92 64.64c-2.37 0.92-1.87 4.5-1.38 6.47a1.65 1.64 74.9 0 0 2.06 1.19c21.27-6.33 41.67-14.5 63.93-16.91q0.52-0.06 0.71-0.56l6.09-16.2a0.34 0.34 0 0 0-0.38-0.46c-13.66 2.7-25.09 7.54-38.36 13.6-10.64 4.86-21.74 8.63-32.67 12.87z" fill="#002b56"/>
<path d="m81.94 463.44q9.72-9.2 24.3-20.92c5.33-4.29 17.47-11.27 23.38-4.07 2.8 3.42 1.26 6.06 0.61 9.86q-2.23 13-1.75 26.15c0.25 6.91 2.32 14.57 3.25 21.92a0.9 0.9 0 0 0 1.45 0.59c8.94-7.12 17.7-12.91 28.53-17.98q6.96-3.25 13.92-6.54c2.05-0.97 5.18-1.4 6.81-2.25 17.36-9.13 37.32-12.49 54.31-14.97 8.09-1.18 16.26 0.64 25.53 3.23q0.87 0.24 4 0.59c1.9 0.21 3.48 1.23 5.35 1.31 6.48 0.24 12.32 0 19.11 0.84 6.14 0.76 12.48-0.09 18.46 1.15q4.11 0.86 6.04 0.65c15.36-1.73 28.89-7.63 42.82-13.94q9.55-4.33 15.65-6.31 7.99-2.6 16.13-4.72c14.51-3.77 29.41-9.19 43.18-11.66q15.53-2.8 23.24-4.38c11.34-2.33 25.46-1.02 37.15-0.98 1.85 0.01 3.42 0.95 4.93 1.13q12.38 1.5 20.04 11.01c1.46 1.81 1.46 3.33 0.38 5.27q-0.25 0.44-0.01 0.88c0.81 1.5 1.69 2.69 1.73 4.46 0.1 4.14 0.33 7.74-0.99 11.74-5.58 16.85-15.3 32.36-28.8 42.93q-7.43 5.82-14.84 11.67c-6.11 4.83-13.27 7.81-20.16 11.36q-6.86 3.53-17.44 5.49-3.6 0.67-10.99 1.06c-4.89 0.25-10.37 1.2-14.69 0.96-5.99-0.34-19.37-2.46-19.79-10.52-0.3-5.8 3-8.44 8.09-11.17 6.36-3.39 13.27-6.64 18.95-11.1 3.28-2.57 6.43-4.34 8.71-8.05q1.83-2.98 3.85-5.6a0.4 0.4 0 0 0-0.43-0.63c-10.02 2.77-20.38 4.45-30.02 8.01-21.25 7.88-41.86 17.24-63.13 25.14-6.78 2.51-14.97 3.01-22.14 3.99-11 1.49-22.18 0.96-33.3 0.97q-1.69 0-4.04-0.86c-5.23-1.91-8.8 0.33-13.33 0.89-9.17 1.14-17.26 1.68-27.08 4.74q-6.14 1.9-13.33 5.49-15.84 7.92-31.67 15.88-5.5 2.76-24 15.49-11.69 8.05-28.24 14.32c-7.8 2.95-14.42 8.05-21.99 10.37q-9.07 2.78-14.74 2.85c-6.72 0.09-14.73 0.88-20.93-1.06-16.2-5.06-29.24-21.91-30.41-38.44-0.66-9.43-2.45-17.62-0.22-25.36 1.6-5.59 2.01-10.93 3.87-16.32 5.83-16.8 11.43-32.02 24.69-44.56z" fill="#002b56"/>
<path d="m376.65 872.11q1.33-2.36-0.75-0.62c-7.44 6.18-14.4 12.63-20.31 19.91-9.56 11.74-18.06 1.43-18.47-8.62-0.22-5.51 2.33-16.58 4.07-22.85 4.09-14.73 15.17-28.41 27.58-37.41q3.37-2.46 8.57-6.54c9.58-7.52 20.42-10.88 31.72-16.92 2.15-1.15 5.81-1.93 8.56-3.24 6.76-3.22 13.82-5.15 20.6-8.13 5.72-2.52 14.49-2.57 21.13-0.49 6.71 2.09 15.95 4.3 21.14 9.22 1.44 1.37 3.11 2.06 4.44 3.35 5.27 5.15 9.36 9.49 7.66 17.37q-0.62 2.85-3.2 5.66c-9.04 9.82-19.88 14.37-32.17 19.01-14.27 5.38-28 14.59-39.4 23.26q-3.27 2.5-5.58 6.14c-4.02 6.33-7.16 11.51-3.83 18.91 2.39 5.33 13.84 4.02 18.2 2.77q12.72-3.66 22.88-10.17c17.28-11.07 32.74-24.49 49.04-36.92 5.23-3.99 12.45 0.06 9.6 6.69-4.19 9.74-8.63 19.48-12.03 29.54-1.33 3.91-3.11 7.34-4.59 11.31-0.68 1.83-2.04 3.19-2.76 5-3.25 8.11-8.47 15.95-13.09 22.6-13.3 19.14-26.69 28.4-49.47 34.23q-4.18 1.07-9.02 1.08c-9.13 0-16.91 0.53-26.38-2.39-14.47-4.46-35.42-10.37-35.78-28.45-0.1-4.93-0.34-9.36 1.11-14.17 3.49-11.59 8.16-21.76 15.31-31.27q3.19-4.24 5.22-7.86z" fill="#002b56"/>
</svg>
